<svg width="68" height="68" viewBox="0 0 68 68" fill="none" xmlns="http://www.w3.org/2000/svg">
<rect width="68" height="68" rx="15" fill="#FF6F61"/>
<path d="M52.6234 25.8812C52.3454 25.6012 52.0145 25.3791 51.65 25.2278C51.2855 25.0766 50.8946 24.9991 50.5 25H44.5V23.5C44.5 20.7152 43.3938 18.0445 41.4246 16.0754C39.4555 14.1062 36.7848 13 34 13C31.2152 13 28.5445 14.1062 26.5754 16.0754C24.6062 18.0445 23.5 20.7152 23.5 23.5V25H17.5C16.7044 25 15.9413 25.3161 15.3787 25.8787C14.8161 26.4413 14.5 27.2044 14.5 28V48.25C14.5 51.9062 17.5938 55 21.25 55H46.75C48.5186 55.0006 50.2172 54.3091 51.4825 53.0734C52.1193 52.466 52.6263 51.7357 52.9731 50.9269C53.3198 50.118 53.4991 49.2472 53.5 48.3672V28C53.5012 27.6064 53.4244 27.2165 53.2739 26.8528C53.1235 26.4892 52.9024 26.1589 52.6234 25.8812V25.8812ZM26.5 23.5C26.5 21.5109 27.2902 19.6032 28.6967 18.1967C30.1032 16.7902 32.0109 16 34 16C35.9891 16 37.8968 16.7902 39.3033 18.1967C40.7098 19.6032 41.5 21.5109 41.5 23.5V25H26.5V23.5ZM44.5 32.5C44.5 35.2848 43.3938 37.9555 41.4246 39.9246C39.4555 41.8938 36.7848 43 34 43C31.2152 43 28.5445 41.8938 26.5754 39.9246C24.6062 37.9555 23.5 35.2848 23.5 32.5V31C23.5 30.6022 23.658 30.2206 23.9393 29.9393C24.2206 29.658 24.6022 29.5 25 29.5C25.3978 29.5 25.7794 29.658 26.0607 29.9393C26.342 30.2206 26.5 30.6022 26.5 31V32.5C26.5 34.4891 27.2902 36.3968 28.6967 37.8033C30.1032 39.2098 32.0109 40 34 40C35.9891 40 37.8968 39.2098 39.3033 37.8033C40.7098 36.3968 41.5 34.4891 41.5 32.5V31C41.5 30.6022 41.658 30.2206 41.9393 29.9393C42.2206 29.658 42.6022 29.5 43 29.5C43.3978 29.5 43.7794 29.658 44.0607 29.9393C44.342 30.2206 44.5 30.6022 44.5 31V32.5Z" fill="white"/>
</svg>
