<svg width="190" height="50" viewBox="0 0 190 50" fill="none" xmlns="http://www.w3.org/2000/svg">
<g clip-path="url(#clip0_2_2)">
<path d="M0.0350003 -0.00800323H24.415V7.412H7.72V16.263H22.189V23.683H7.72V39H0.0350003V-0.00800323Z" fill="#FF6F61"/>
<path d="M29.0583 27.658C29.0583 25.432 29.5883 23.4357 30.6483 21.669C31.7083 19.867 33.1746 18.4537 35.0473 17.429C36.92 16.4043 39.0576 15.892 41.4603 15.892C43.8983 15.892 46.036 16.4043 47.8733 17.429C49.7106 18.4537 51.124 19.867 52.1133 21.669C53.138 23.4357 53.6503 25.432 53.6503 27.658C53.6503 29.884 53.138 31.898 52.1133 33.7C51.124 35.502 49.7106 36.933 47.8733 37.993C46.036 39.0177 43.8806 39.53 41.4073 39.53C39.04 39.53 36.92 39.053 35.0473 38.099C33.21 37.145 31.7436 35.7847 30.6483 34.018C29.5883 32.216 29.0583 30.096 29.0583 27.658ZM34.5703 27.711C34.5703 29.089 34.8706 30.3433 35.4713 31.474C36.072 32.5693 36.8846 33.4527 37.9093 34.124C38.934 34.76 40.0823 35.078 41.3543 35.078C42.6616 35.078 43.8276 34.76 44.8523 34.124C45.877 33.4527 46.672 32.5693 47.2373 31.474C47.838 30.3433 48.1383 29.089 48.1383 27.711C48.1383 26.333 47.838 25.0963 47.2373 24.001C46.672 22.9057 45.877 22.0223 44.8523 21.351C43.8276 20.6797 42.6616 20.344 41.3543 20.344C40.047 20.344 38.881 20.6797 37.8563 21.351C36.8316 22.0223 36.019 22.9233 35.4183 24.054C34.853 25.1493 34.5703 26.3683 34.5703 27.711ZM58.1979 27.658C58.1979 25.432 58.7279 23.4357 59.7879 21.669C60.8479 19.867 62.3143 18.4537 64.1869 17.429C66.0596 16.4043 68.1973 15.892 70.5999 15.892C73.0379 15.892 75.1756 16.4043 77.0129 17.429C78.8503 18.4537 80.2636 19.867 81.2529 21.669C82.2776 23.4357 82.7899 25.432 82.7899 27.658C82.7899 29.884 82.2776 31.898 81.2529 33.7C80.2636 35.502 78.8503 36.933 77.0129 37.993C75.1756 39.0177 73.0203 39.53 70.5469 39.53C68.1796 39.53 66.0596 39.053 64.1869 38.099C62.3496 37.145 60.8833 35.7847 59.7879 34.018C58.7279 32.216 58.1979 30.096 58.1979 27.658ZM63.7099 27.711C63.7099 29.089 64.0103 30.3433 64.6109 31.474C65.2116 32.5693 66.0243 33.4527 67.0489 34.124C68.0736 34.76 69.2219 35.078 70.4939 35.078C71.8013 35.078 72.9673 34.76 73.9919 34.124C75.0166 33.4527 75.8116 32.5693 76.3769 31.474C76.9776 30.3433 77.2779 29.089 77.2779 27.711C77.2779 26.333 76.9776 25.0963 76.3769 24.001C75.8116 22.9057 75.0166 22.0223 73.9919 21.351C72.9673 20.6797 71.8013 20.344 70.4939 20.344C69.1866 20.344 68.0206 20.6797 66.9959 21.351C65.9713 22.0223 65.1586 22.9233 64.5579 24.054C63.9926 25.1493 63.7099 26.3683 63.7099 27.711ZM91.3656 7.041H96.8246V16.846H102.761V21.139H96.8246V39H91.3656V21.139H87.4436V16.846H91.3656V7.041ZM126.834 36.933C125.844 37.7457 124.643 38.3817 123.23 38.841C121.852 39.3003 120.456 39.53 119.043 39.53C116.605 39.53 114.449 39.053 112.577 38.099C110.739 37.145 109.308 35.8023 108.284 34.071C107.259 32.3397 106.747 30.2727 106.747 27.87C106.747 25.5027 107.294 23.4533 108.39 21.722C109.485 19.9553 110.934 18.6127 112.736 17.694C114.538 16.74 116.446 16.263 118.46 16.263C120.297 16.263 121.922 16.5103 123.336 17.005C124.749 17.4997 125.968 18.1887 126.993 19.072L124.29 22.623C123.689 22.1283 122.929 21.6867 122.011 21.298C121.127 20.9093 120.103 20.715 118.937 20.715C117.7 20.715 116.569 21.033 115.545 21.669C114.52 22.2697 113.707 23.1177 113.107 24.213C112.506 25.273 112.206 26.492 112.206 27.87C112.206 29.1773 112.506 30.3963 113.107 31.527C113.743 32.6223 114.608 33.488 115.704 34.124C116.799 34.76 118.053 35.078 119.467 35.078C120.385 35.078 121.233 34.9543 122.011 34.707C122.788 34.4243 123.477 34.0357 124.078 33.541L126.834 36.933ZM142.359 39.53C140.275 39.53 138.384 39.106 136.688 38.258C134.992 37.3747 133.65 36.0673 132.66 34.336C131.671 32.6047 131.176 30.467 131.176 27.923C131.176 25.4143 131.689 23.259 132.713 21.457C133.773 19.655 135.151 18.277 136.847 17.323C138.579 16.3337 140.451 15.839 142.465 15.839C144.585 15.839 146.317 16.2983 147.659 17.217C149.037 18.1003 150.115 19.1427 150.892 20.344L150.521 21.192L151.051 16.793H156.086V39H150.627V33.435L151.21 34.76C151.069 35.0427 150.769 35.449 150.309 35.979C149.85 36.4737 149.232 37.0037 148.454 37.569C147.712 38.1343 146.829 38.6113 145.804 39C144.815 39.3533 143.667 39.53 142.359 39.53ZM143.843 35.078C145.009 35.078 146.052 34.866 146.97 34.442C147.889 34.018 148.666 33.4173 149.302 32.64C149.938 31.8627 150.38 30.944 150.627 29.884V25.273C150.345 24.2837 149.868 23.4357 149.196 22.729C148.525 21.987 147.712 21.404 146.758 20.98C145.84 20.556 144.815 20.344 143.684 20.344C142.412 20.344 141.246 20.662 140.186 21.298C139.126 21.8987 138.278 22.7467 137.642 23.842C137.006 24.9373 136.688 26.2093 136.688 27.658C136.688 29.036 137.006 30.2903 137.642 31.421C138.314 32.5517 139.197 33.4527 140.292 34.124C141.388 34.76 142.571 35.078 143.843 35.078ZM177.753 39.53C176.127 39.53 174.573 39.1767 173.089 38.47C171.605 37.728 170.421 36.7387 169.538 35.502L169.856 33.859V49.653H164.45V16.422H169.167L169.909 21.828L169.326 20.291C170.421 19.019 171.764 17.959 173.354 17.111C174.979 16.263 176.781 15.839 178.76 15.839C180.844 15.839 182.717 16.3337 184.378 17.323C186.038 18.3123 187.346 19.708 188.3 21.51C189.254 23.312 189.731 25.432 189.731 27.87C189.731 30.2727 189.201 32.3573 188.141 34.124C187.116 35.8553 185.703 37.198 183.901 38.152C182.099 39.0707 180.049 39.53 177.753 39.53ZM176.693 35.237C178.035 35.237 179.272 34.919 180.403 34.283C181.569 33.647 182.487 32.7813 183.159 31.686C183.865 30.5553 184.219 29.301 184.219 27.923C184.219 26.4743 183.883 25.2023 183.212 24.107C182.576 22.9763 181.71 22.093 180.615 21.457C179.555 20.821 178.371 20.503 177.064 20.503C175.827 20.503 174.732 20.7327 173.778 21.192C172.824 21.616 172.011 22.2167 171.34 22.994C170.668 23.7713 170.191 24.7077 169.909 25.803V29.884C170.121 30.9087 170.545 31.8273 171.181 32.64C171.817 33.4527 172.612 34.0887 173.566 34.548C174.52 35.0073 175.562 35.237 176.693 35.237Z" fill="#151A32"/>
</g>
<defs>
<clipPath id="clip0_2_2">
<rect width="190" height="50" fill="white"/>
</clipPath>
</defs>
</svg>
